<?xml version="1.0" encoding="UTF-8" standalone="no"?>
<!DOCTYPE svg PUBLIC "-//W3C//DTD SVG 1.1//EN"
 "http://www.w3.org/Graphics/SVG/1.1/DTD/svg11.dtd">
<!-- Generated by graphviz version 2.50.0 (20211209.0339)
 -->
<!-- Title: snakemake_dag Pages: 1 -->
<svg width="294pt" height="647pt"
 viewBox="0.00 0.00 294.00 647.00" xmlns="http://www.w3.org/2000/svg" xmlns:xlink="http://www.w3.org/1999/xlink">
<g id="graph0" class="graph" transform="scale(1 1) rotate(0) translate(4 643)">
<title>snakemake_dag</title>
<polygon fill="white" stroke="transparent" points="-4,4 -4,-643 290,-643 290,4 -4,4"/>
<!-- 0 -->
<g id="node1" class="node">
<title>0</title>
<path fill="none" stroke="#56b1d8" stroke-width="2" d="M158.5,-36C158.5,-36 128.5,-36 128.5,-36 122.5,-36 116.5,-30 116.5,-24 116.5,-24 116.5,-12 116.5,-12 116.5,-6 122.5,0 128.5,0 128.5,0 158.5,0 158.5,0 164.5,0 170.5,-6 170.5,-12 170.5,-12 170.5,-24 170.5,-24 170.5,-30 164.5,-36 158.5,-36"/>
<text text-anchor="middle" x="143.5" y="-15.5" font-family="sans" font-size="10.00">all</text>
</g>
<!-- 1 -->
<g id="node2" class="node">
<title>1</title>
<path fill="none" stroke="#d86e56" stroke-width="2" d="M158.5,-108C158.5,-108 128.5,-108 128.5,-108 122.5,-108 116.5,-102 116.5,-96 116.5,-96 116.5,-84 116.5,-84 116.5,-78 122.5,-72 128.5,-72 128.5,-72 158.5,-72 158.5,-72 164.5,-72 170.5,-78 170.5,-84 170.5,-84 170.5,-96 170.5,-96 170.5,-102 164.5,-108 158.5,-108"/>
<text text-anchor="middle" x="143.5" y="-87.5" font-family="sans" font-size="10.00">plots</text>
</g>
<!-- 1&#45;&gt;0 -->
<g id="edge1" class="edge">
<title>1&#45;&gt;0</title>
<path fill="none" stroke="grey" stroke-width="2" d="M143.5,-71.7C143.5,-63.98 143.5,-54.71 143.5,-46.11"/>
<polygon fill="grey" stroke="grey" stroke-width="2" points="147,-46.1 143.5,-36.1 140,-46.1 147,-46.1"/>
</g>
<!-- 2 -->
<g id="node3" class="node">
<title>2</title>
<path fill="none" stroke="#56d8b9" stroke-width="2" d="M177,-180C177,-180 110,-180 110,-180 104,-180 98,-174 98,-168 98,-168 98,-156 98,-156 98,-150 104,-144 110,-144 110,-144 177,-144 177,-144 183,-144 189,-150 189,-156 189,-156 189,-168 189,-168 189,-174 183,-180 177,-180"/>
<text text-anchor="middle" x="143.5" y="-159.5" font-family="sans" font-size="10.00">make_PA_table</text>
</g>
<!-- 2&#45;&gt;1 -->
<g id="edge2" class="edge">
<title>2&#45;&gt;1</title>
<path fill="none" stroke="grey" stroke-width="2" d="M143.5,-143.7C143.5,-135.98 143.5,-126.71 143.5,-118.11"/>
<polygon fill="grey" stroke="grey" stroke-width="2" points="147,-118.1 143.5,-108.1 140,-118.1 147,-118.1"/>
</g>
<!-- 3 -->
<g id="node4" class="node">
<title>3</title>
<path fill="none" stroke="#61d856" stroke-width="2" d="M72,-252C72,-252 25,-252 25,-252 19,-252 13,-246 13,-240 13,-240 13,-228 13,-228 13,-222 19,-216 25,-216 25,-216 72,-216 72,-216 78,-216 84,-222 84,-228 84,-228 84,-240 84,-240 84,-246 78,-252 72,-252"/>
<text text-anchor="middle" x="48.5" y="-231.5" font-family="sans" font-size="10.00">find_family</text>
</g>
<!-- 3&#45;&gt;2 -->
<g id="edge3" class="edge">
<title>3&#45;&gt;2</title>
<path fill="none" stroke="grey" stroke-width="2" d="M71.98,-215.7C84.06,-206.8 98.95,-195.82 112.02,-186.2"/>
<polygon fill="grey" stroke="grey" stroke-width="2" points="114.31,-188.85 120.29,-180.1 110.16,-183.22 114.31,-188.85"/>
</g>
<!-- 4 -->
<g id="node5" class="node">
<title>4</title>
<path fill="none" stroke="#56d892" stroke-width="2" d="M72,-351C72,-351 13,-351 13,-351 7,-351 1,-345 1,-339 1,-339 1,-300 1,-300 1,-294 7,-288 13,-288 13,-288 72,-288 72,-288 78,-288 84,-294 84,-300 84,-300 84,-339 84,-339 84,-345 78,-351 72,-351"/>
<text text-anchor="middle" x="42.5" y="-339" font-family="sans" font-size="10.00">silix</text>
<text text-anchor="middle" x="42.5" y="-328" font-family="sans" font-size="10.00">coverage: 0.3</text>
<text text-anchor="middle" x="42.5" y="-317" font-family="sans" font-size="10.00">eval: 1e&#45;03</text>
<text text-anchor="middle" x="42.5" y="-306" font-family="sans" font-size="10.00">pid: 0.2</text>
<text text-anchor="middle" x="42.5" y="-295" font-family="sans" font-size="10.00">seed: Gene_A</text>
</g>
<!-- 4&#45;&gt;3 -->
<g id="edge6" class="edge">
<title>4&#45;&gt;3</title>
<path fill="none" stroke="grey" stroke-width="2" d="M44.7,-287.88C45.3,-279.47 45.96,-270.4 46.55,-262.19"/>
<polygon fill="grey" stroke="grey" stroke-width="2" points="50.05,-262.25 47.28,-252.03 43.07,-261.75 50.05,-262.25"/>
</g>
<!-- 5 -->
<g id="node6" class="node">
<title>5</title>
<path fill="none" stroke="#bed856" stroke-width="2" d="M180.5,-423C180.5,-423 106.5,-423 106.5,-423 100.5,-423 94.5,-417 94.5,-411 94.5,-411 94.5,-399 94.5,-399 94.5,-393 100.5,-387 106.5,-387 106.5,-387 180.5,-387 180.5,-387 186.5,-387 192.5,-393 192.5,-399 192.5,-399 192.5,-411 192.5,-411 192.5,-417 186.5,-423 180.5,-423"/>
<text text-anchor="middle" x="143.5" y="-402.5" font-family="sans" font-size="10.00">prepare_for_silix</text>
</g>
<!-- 5&#45;&gt;4 -->
<g id="edge7" class="edge">
<title>5&#45;&gt;4</title>
<path fill="none" stroke="grey" stroke-width="2" d="M122.57,-386.7C112.43,-378.31 99.83,-367.9 87.65,-357.83"/>
<polygon fill="grey" stroke="grey" stroke-width="2" points="89.67,-354.96 79.73,-351.28 85.21,-360.35 89.67,-354.96"/>
</g>
<!-- 11 -->
<g id="node12" class="node">
<title>11</title>
<path fill="none" stroke="#56d892" stroke-width="2" d="M173,-351C173,-351 114,-351 114,-351 108,-351 102,-345 102,-339 102,-339 102,-300 102,-300 102,-294 108,-288 114,-288 114,-288 173,-288 173,-288 179,-288 185,-294 185,-300 185,-300 185,-339 185,-339 185,-345 179,-351 173,-351"/>
<text text-anchor="middle" x="143.5" y="-339" font-family="sans" font-size="10.00">silix</text>
<text text-anchor="middle" x="143.5" y="-328" font-family="sans" font-size="10.00">coverage: 0.3</text>
<text text-anchor="middle" x="143.5" y="-317" font-family="sans" font-size="10.00">eval: 1e&#45;02</text>
<text text-anchor="middle" x="143.5" y="-306" font-family="sans" font-size="10.00">pid: 0.6</text>
<text text-anchor="middle" x="143.5" y="-295" font-family="sans" font-size="10.00">seed: Gene_B</text>
</g>
<!-- 5&#45;&gt;11 -->
<g id="edge13" class="edge">
<title>5&#45;&gt;11</title>
<path fill="none" stroke="grey" stroke-width="2" d="M143.5,-386.7C143.5,-379.27 143.5,-370.25 143.5,-361.29"/>
<polygon fill="grey" stroke="grey" stroke-width="2" points="147,-361.28 143.5,-351.28 140,-361.28 147,-361.28"/>
</g>
<!-- 13 -->
<g id="node14" class="node">
<title>13</title>
<path fill="none" stroke="#56d892" stroke-width="2" d="M274,-351C274,-351 215,-351 215,-351 209,-351 203,-345 203,-339 203,-339 203,-300 203,-300 203,-294 209,-288 215,-288 215,-288 274,-288 274,-288 280,-288 286,-294 286,-300 286,-300 286,-339 286,-339 286,-345 280,-351 274,-351"/>
<text text-anchor="middle" x="244.5" y="-339" font-family="sans" font-size="10.00">silix</text>
<text text-anchor="middle" x="244.5" y="-328" font-family="sans" font-size="10.00">coverage: 0.5</text>
<text text-anchor="middle" x="244.5" y="-317" font-family="sans" font-size="10.00">eval: 1e&#45;02</text>
<text text-anchor="middle" x="244.5" y="-306" font-family="sans" font-size="10.00">pid: 0.2</text>
<text text-anchor="middle" x="244.5" y="-295" font-family="sans" font-size="10.00">seed: Gene_C</text>
</g>
<!-- 5&#45;&gt;13 -->
<g id="edge15" class="edge">
<title>5&#45;&gt;13</title>
<path fill="none" stroke="grey" stroke-width="2" d="M164.43,-386.7C174.57,-378.31 187.17,-367.9 199.35,-357.83"/>
<polygon fill="grey" stroke="grey" stroke-width="2" points="201.79,-360.35 207.27,-351.28 197.33,-354.96 201.79,-360.35"/>
</g>
<!-- 6 -->
<g id="node7" class="node">
<title>6</title>
<path fill="none" stroke="#78d856" stroke-width="2" d="M158.5,-495C158.5,-495 128.5,-495 128.5,-495 122.5,-495 116.5,-489 116.5,-483 116.5,-483 116.5,-471 116.5,-471 116.5,-465 122.5,-459 128.5,-459 128.5,-459 158.5,-459 158.5,-459 164.5,-459 170.5,-465 170.5,-471 170.5,-471 170.5,-483 170.5,-483 170.5,-489 164.5,-495 158.5,-495"/>
<text text-anchor="middle" x="143.5" y="-474.5" font-family="sans" font-size="10.00">blast</text>
</g>
<!-- 6&#45;&gt;5 -->
<g id="edge8" class="edge">
<title>6&#45;&gt;5</title>
<path fill="none" stroke="grey" stroke-width="2" d="M143.5,-458.7C143.5,-450.98 143.5,-441.71 143.5,-433.11"/>
<polygon fill="grey" stroke="grey" stroke-width="2" points="147,-433.1 143.5,-423.1 140,-433.1 147,-433.1"/>
</g>
<!-- 7 -->
<g id="node8" class="node">
<title>7</title>
<path fill="none" stroke="#5682d8" stroke-width="2" d="M170.5,-567C170.5,-567 116.5,-567 116.5,-567 110.5,-567 104.5,-561 104.5,-555 104.5,-555 104.5,-543 104.5,-543 104.5,-537 110.5,-531 116.5,-531 116.5,-531 170.5,-531 170.5,-531 176.5,-531 182.5,-537 182.5,-543 182.5,-543 182.5,-555 182.5,-555 182.5,-561 176.5,-567 170.5,-567"/>
<text text-anchor="middle" x="143.5" y="-546.5" font-family="sans" font-size="10.00">merge_fasta</text>
</g>
<!-- 7&#45;&gt;6 -->
<g id="edge9" class="edge">
<title>7&#45;&gt;6</title>
<path fill="none" stroke="grey" stroke-width="2" d="M143.5,-530.7C143.5,-522.98 143.5,-513.71 143.5,-505.11"/>
<polygon fill="grey" stroke="grey" stroke-width="2" points="147,-505.1 143.5,-495.1 140,-505.1 147,-505.1"/>
</g>
<!-- 8 -->
<g id="node9" class="node">
<title>8</title>
<path fill="none" stroke="#56c9d8" stroke-width="2" d="M125,-639C125,-639 12,-639 12,-639 6,-639 0,-633 0,-627 0,-627 0,-615 0,-615 0,-609 6,-603 12,-603 12,-603 125,-603 125,-603 131,-603 137,-609 137,-615 137,-615 137,-627 137,-627 137,-633 131,-639 125,-639"/>
<text text-anchor="middle" x="68.5" y="-618.5" font-family="sans" font-size="10.00">fetch_proteins_database</text>
</g>
<!-- 8&#45;&gt;7 -->
<g id="edge10" class="edge">
<title>8&#45;&gt;7</title>
<path fill="none" stroke="grey" stroke-width="2" d="M87.04,-602.7C96.3,-594.05 107.66,-583.45 117.76,-574.03"/>
<polygon fill="grey" stroke="grey" stroke-width="2" points="120.25,-576.49 125.17,-567.1 115.48,-571.37 120.25,-576.49"/>
</g>
<!-- 9 -->
<g id="node10" class="node">
<title>9</title>
<path fill="none" stroke="#8fd856" stroke-width="2" d="M271.5,-639C271.5,-639 167.5,-639 167.5,-639 161.5,-639 155.5,-633 155.5,-627 155.5,-627 155.5,-615 155.5,-615 155.5,-609 161.5,-603 167.5,-603 167.5,-603 271.5,-603 271.5,-603 277.5,-603 283.5,-609 283.5,-615 283.5,-615 283.5,-627 283.5,-627 283.5,-633 277.5,-639 271.5,-639"/>
<text text-anchor="middle" x="219.5" y="-618.5" font-family="sans" font-size="10.00">fetch_fasta_from_seed</text>
</g>
<!-- 9&#45;&gt;7 -->
<g id="edge11" class="edge">
<title>9&#45;&gt;7</title>
<path fill="none" stroke="grey" stroke-width="2" d="M200.71,-602.7C191.33,-594.05 179.82,-583.45 169.59,-574.03"/>
<polygon fill="grey" stroke="grey" stroke-width="2" points="171.8,-571.3 162.07,-567.1 167.05,-576.45 171.8,-571.3"/>
</g>
<!-- 10 -->
<g id="node11" class="node">
<title>10</title>
<path fill="none" stroke="#61d856" stroke-width="2" d="M167,-252C167,-252 120,-252 120,-252 114,-252 108,-246 108,-240 108,-240 108,-228 108,-228 108,-222 114,-216 120,-216 120,-216 167,-216 167,-216 173,-216 179,-222 179,-228 179,-228 179,-240 179,-240 179,-246 173,-252 167,-252"/>
<text text-anchor="middle" x="143.5" y="-231.5" font-family="sans" font-size="10.00">find_family</text>
</g>
<!-- 10&#45;&gt;2 -->
<g id="edge4" class="edge">
<title>10&#45;&gt;2</title>
<path fill="none" stroke="grey" stroke-width="2" d="M143.5,-215.7C143.5,-207.98 143.5,-198.71 143.5,-190.11"/>
<polygon fill="grey" stroke="grey" stroke-width="2" points="147,-190.1 143.5,-180.1 140,-190.1 147,-190.1"/>
</g>
<!-- 11&#45;&gt;10 -->
<g id="edge12" class="edge">
<title>11&#45;&gt;10</title>
<path fill="none" stroke="grey" stroke-width="2" d="M143.5,-287.88C143.5,-279.47 143.5,-270.4 143.5,-262.19"/>
<polygon fill="grey" stroke="grey" stroke-width="2" points="147,-262.03 143.5,-252.03 140,-262.03 147,-262.03"/>
</g>
<!-- 12 -->
<g id="node13" class="node">
<title>12</title>
<path fill="none" stroke="#61d856" stroke-width="2" d="M262,-252C262,-252 215,-252 215,-252 209,-252 203,-246 203,-240 203,-240 203,-228 203,-228 203,-222 209,-216 215,-216 215,-216 262,-216 262,-216 268,-216 274,-222 274,-228 274,-228 274,-240 274,-240 274,-246 268,-252 262,-252"/>
<text text-anchor="middle" x="238.5" y="-231.5" font-family="sans" font-size="10.00">find_family</text>
</g>
<!-- 12&#45;&gt;2 -->
<g id="edge5" class="edge">
<title>12&#45;&gt;2</title>
<path fill="none" stroke="grey" stroke-width="2" d="M215.02,-215.7C202.94,-206.8 188.05,-195.82 174.98,-186.2"/>
<polygon fill="grey" stroke="grey" stroke-width="2" points="176.84,-183.22 166.71,-180.1 172.69,-188.85 176.84,-183.22"/>
</g>
<!-- 13&#45;&gt;12 -->
<g id="edge14" class="edge">
<title>13&#45;&gt;12</title>
<path fill="none" stroke="grey" stroke-width="2" d="M242.3,-287.88C241.7,-279.47 241.04,-270.4 240.45,-262.19"/>
<polygon fill="grey" stroke="grey" stroke-width="2" points="243.93,-261.75 239.72,-252.03 236.95,-262.25 243.93,-261.75"/>
</g>
</g>
</svg>
