<?xml version="1.0" encoding="UTF-8" standalone="no"?>
<!DOCTYPE svg PUBLIC "-//W3C//DTD SVG 1.1//EN"
 "http://www.w3.org/Graphics/SVG/1.1/DTD/svg11.dtd">
<!-- Generated by graphviz version 2.50.0 (20211209.0339)
 -->
<!-- Title: snakemake_dag Pages: 1 -->
<svg width="305pt" height="1007pt"
 viewBox="0.00 0.00 304.50 1007.00" xmlns="http://www.w3.org/2000/svg" xmlns:xlink="http://www.w3.org/1999/xlink">
<g id="graph0" class="graph" transform="scale(1 1) rotate(0) translate(4 1003)">
<title>snakemake_dag</title>
<polygon fill="white" stroke="transparent" points="-4,4 -4,-1003 300.5,-1003 300.5,4 -4,4"/>
<!-- 0 -->
<g id="node1" class="node">
<title>0</title>
<path fill="none" stroke="#d8c356" stroke-width="2" d="M157.5,-36C157.5,-36 127.5,-36 127.5,-36 121.5,-36 115.5,-30 115.5,-24 115.5,-24 115.5,-12 115.5,-12 115.5,-6 121.5,0 127.5,0 127.5,0 157.5,0 157.5,0 163.5,0 169.5,-6 169.5,-12 169.5,-12 169.5,-24 169.5,-24 169.5,-30 163.5,-36 157.5,-36"/>
<text text-anchor="middle" x="142.5" y="-15.5" font-family="sans" font-size="10.00">all</text>
</g>
<!-- 1 -->
<g id="node2" class="node">
<title>1</title>
<path fill="none" stroke="#56d863" stroke-width="2" d="M157.5,-108C157.5,-108 127.5,-108 127.5,-108 121.5,-108 115.5,-102 115.5,-96 115.5,-96 115.5,-84 115.5,-84 115.5,-78 121.5,-72 127.5,-72 127.5,-72 157.5,-72 157.5,-72 163.5,-72 169.5,-78 169.5,-84 169.5,-84 169.5,-96 169.5,-96 169.5,-102 163.5,-108 157.5,-108"/>
<text text-anchor="middle" x="142.5" y="-87.5" font-family="sans" font-size="10.00">plots</text>
</g>
<!-- 1&#45;&gt;0 -->
<g id="edge1" class="edge">
<title>1&#45;&gt;0</title>
<path fill="none" stroke="grey" stroke-width="2" d="M142.5,-71.7C142.5,-63.98 142.5,-54.71 142.5,-46.11"/>
<polygon fill="grey" stroke="grey" stroke-width="2" points="146,-46.1 142.5,-36.1 139,-46.1 146,-46.1"/>
</g>
<!-- 2 -->
<g id="node3" class="node">
<title>2</title>
<path fill="none" stroke="#d8b456" stroke-width="2" d="M176,-180C176,-180 109,-180 109,-180 103,-180 97,-174 97,-168 97,-168 97,-156 97,-156 97,-150 103,-144 109,-144 109,-144 176,-144 176,-144 182,-144 188,-150 188,-156 188,-156 188,-168 188,-168 188,-174 182,-180 176,-180"/>
<text text-anchor="middle" x="142.5" y="-159.5" font-family="sans" font-size="10.00">make_PA_table</text>
</g>
<!-- 2&#45;&gt;1 -->
<g id="edge2" class="edge">
<title>2&#45;&gt;1</title>
<path fill="none" stroke="grey" stroke-width="2" d="M142.5,-143.7C142.5,-135.98 142.5,-126.71 142.5,-118.11"/>
<polygon fill="grey" stroke="grey" stroke-width="2" points="146,-118.1 142.5,-108.1 139,-118.1 146,-118.1"/>
</g>
<!-- 3 -->
<g id="node4" class="node">
<title>3</title>
<path fill="none" stroke="#56b1d8" stroke-width="2" d="M71,-252C71,-252 24,-252 24,-252 18,-252 12,-246 12,-240 12,-240 12,-228 12,-228 12,-222 18,-216 24,-216 24,-216 71,-216 71,-216 77,-216 83,-222 83,-228 83,-228 83,-240 83,-240 83,-246 77,-252 71,-252"/>
<text text-anchor="middle" x="47.5" y="-231.5" font-family="sans" font-size="10.00">find_family</text>
</g>
<!-- 3&#45;&gt;2 -->
<g id="edge3" class="edge">
<title>3&#45;&gt;2</title>
<path fill="none" stroke="grey" stroke-width="2" d="M70.98,-215.7C83.06,-206.8 97.95,-195.82 111.02,-186.2"/>
<polygon fill="grey" stroke="grey" stroke-width="2" points="113.31,-188.85 119.29,-180.1 109.16,-183.22 113.31,-188.85"/>
</g>
<!-- 4 -->
<g id="node5" class="node">
<title>4</title>
<path fill="none" stroke="#56d8d0" stroke-width="2" d="M71,-351C71,-351 12,-351 12,-351 6,-351 0,-345 0,-339 0,-339 0,-300 0,-300 0,-294 6,-288 12,-288 12,-288 71,-288 71,-288 77,-288 83,-294 83,-300 83,-300 83,-339 83,-339 83,-345 77,-351 71,-351"/>
<text text-anchor="middle" x="41.5" y="-339" font-family="sans" font-size="10.00">silix</text>
<text text-anchor="middle" x="41.5" y="-328" font-family="sans" font-size="10.00">coverage: 0.3</text>
<text text-anchor="middle" x="41.5" y="-317" font-family="sans" font-size="10.00">eval: 1e&#45;03</text>
<text text-anchor="middle" x="41.5" y="-306" font-family="sans" font-size="10.00">pid: 0.2</text>
<text text-anchor="middle" x="41.5" y="-295" font-family="sans" font-size="10.00">seed: Gene_A</text>
</g>
<!-- 4&#45;&gt;3 -->
<g id="edge6" class="edge">
<title>4&#45;&gt;3</title>
<path fill="none" stroke="grey" stroke-width="2" d="M43.7,-287.88C44.3,-279.47 44.96,-270.4 45.55,-262.19"/>
<polygon fill="grey" stroke="grey" stroke-width="2" points="49.05,-262.25 46.28,-252.03 42.07,-261.75 49.05,-262.25"/>
</g>
<!-- 5 -->
<g id="node6" class="node">
<title>5</title>
<path fill="none" stroke="#78d856" stroke-width="2" d="M179.5,-423C179.5,-423 105.5,-423 105.5,-423 99.5,-423 93.5,-417 93.5,-411 93.5,-411 93.5,-399 93.5,-399 93.5,-393 99.5,-387 105.5,-387 105.5,-387 179.5,-387 179.5,-387 185.5,-387 191.5,-393 191.5,-399 191.5,-399 191.5,-411 191.5,-411 191.5,-417 185.5,-423 179.5,-423"/>
<text text-anchor="middle" x="142.5" y="-402.5" font-family="sans" font-size="10.00">prepare_for_silix</text>
</g>
<!-- 5&#45;&gt;4 -->
<g id="edge7" class="edge">
<title>5&#45;&gt;4</title>
<path fill="none" stroke="grey" stroke-width="2" d="M121.57,-386.7C111.43,-378.31 98.83,-367.9 86.65,-357.83"/>
<polygon fill="grey" stroke="grey" stroke-width="2" points="88.67,-354.96 78.73,-351.28 84.21,-360.35 88.67,-354.96"/>
</g>
<!-- 18 -->
<g id="node19" class="node">
<title>18</title>
<path fill="none" stroke="#56d8d0" stroke-width="2" d="M172,-351C172,-351 113,-351 113,-351 107,-351 101,-345 101,-339 101,-339 101,-300 101,-300 101,-294 107,-288 113,-288 113,-288 172,-288 172,-288 178,-288 184,-294 184,-300 184,-300 184,-339 184,-339 184,-345 178,-351 172,-351"/>
<text text-anchor="middle" x="142.5" y="-339" font-family="sans" font-size="10.00">silix</text>
<text text-anchor="middle" x="142.5" y="-328" font-family="sans" font-size="10.00">coverage: 0.3</text>
<text text-anchor="middle" x="142.5" y="-317" font-family="sans" font-size="10.00">eval: 1e&#45;02</text>
<text text-anchor="middle" x="142.5" y="-306" font-family="sans" font-size="10.00">pid: 0.6</text>
<text text-anchor="middle" x="142.5" y="-295" font-family="sans" font-size="10.00">seed: Gene_B</text>
</g>
<!-- 5&#45;&gt;18 -->
<g id="edge21" class="edge">
<title>5&#45;&gt;18</title>
<path fill="none" stroke="grey" stroke-width="2" d="M142.5,-386.7C142.5,-379.27 142.5,-370.25 142.5,-361.29"/>
<polygon fill="grey" stroke="grey" stroke-width="2" points="146,-361.28 142.5,-351.28 139,-361.28 146,-361.28"/>
</g>
<!-- 20 -->
<g id="node21" class="node">
<title>20</title>
<path fill="none" stroke="#56d8d0" stroke-width="2" d="M273,-351C273,-351 214,-351 214,-351 208,-351 202,-345 202,-339 202,-339 202,-300 202,-300 202,-294 208,-288 214,-288 214,-288 273,-288 273,-288 279,-288 285,-294 285,-300 285,-300 285,-339 285,-339 285,-345 279,-351 273,-351"/>
<text text-anchor="middle" x="243.5" y="-339" font-family="sans" font-size="10.00">silix</text>
<text text-anchor="middle" x="243.5" y="-328" font-family="sans" font-size="10.00">coverage: 0.5</text>
<text text-anchor="middle" x="243.5" y="-317" font-family="sans" font-size="10.00">eval: 1e&#45;02</text>
<text text-anchor="middle" x="243.5" y="-306" font-family="sans" font-size="10.00">pid: 0.2</text>
<text text-anchor="middle" x="243.5" y="-295" font-family="sans" font-size="10.00">seed: Gene_C</text>
</g>
<!-- 5&#45;&gt;20 -->
<g id="edge23" class="edge">
<title>5&#45;&gt;20</title>
<path fill="none" stroke="grey" stroke-width="2" d="M163.43,-386.7C173.57,-378.31 186.17,-367.9 198.35,-357.83"/>
<polygon fill="grey" stroke="grey" stroke-width="2" points="200.79,-360.35 206.27,-351.28 196.33,-354.96 200.79,-360.35"/>
</g>
<!-- 6 -->
<g id="node7" class="node">
<title>6</title>
<path fill="none" stroke="#56d87b" stroke-width="2" d="M157.5,-495C157.5,-495 127.5,-495 127.5,-495 121.5,-495 115.5,-489 115.5,-483 115.5,-483 115.5,-471 115.5,-471 115.5,-465 121.5,-459 127.5,-459 127.5,-459 157.5,-459 157.5,-459 163.5,-459 169.5,-465 169.5,-471 169.5,-471 169.5,-483 169.5,-483 169.5,-489 163.5,-495 157.5,-495"/>
<text text-anchor="middle" x="142.5" y="-474.5" font-family="sans" font-size="10.00">blast</text>
</g>
<!-- 6&#45;&gt;5 -->
<g id="edge8" class="edge">
<title>6&#45;&gt;5</title>
<path fill="none" stroke="grey" stroke-width="2" d="M142.5,-458.7C142.5,-450.98 142.5,-441.71 142.5,-433.11"/>
<polygon fill="grey" stroke="grey" stroke-width="2" points="146,-433.1 142.5,-423.1 139,-433.1 146,-433.1"/>
</g>
<!-- 7 -->
<g id="node8" class="node">
<title>7</title>
<path fill="none" stroke="#56d8b9" stroke-width="2" d="M169.5,-567C169.5,-567 115.5,-567 115.5,-567 109.5,-567 103.5,-561 103.5,-555 103.5,-555 103.5,-543 103.5,-543 103.5,-537 109.5,-531 115.5,-531 115.5,-531 169.5,-531 169.5,-531 175.5,-531 181.5,-537 181.5,-543 181.5,-543 181.5,-555 181.5,-555 181.5,-561 175.5,-567 169.5,-567"/>
<text text-anchor="middle" x="142.5" y="-546.5" font-family="sans" font-size="10.00">merge_fasta</text>
</g>
<!-- 7&#45;&gt;6 -->
<g id="edge9" class="edge">
<title>7&#45;&gt;6</title>
<path fill="none" stroke="grey" stroke-width="2" d="M142.5,-530.7C142.5,-522.98 142.5,-513.71 142.5,-505.11"/>
<polygon fill="grey" stroke="grey" stroke-width="2" points="146,-505.1 142.5,-495.1 139,-505.1 146,-505.1"/>
</g>
<!-- 8 -->
<g id="node9" class="node">
<title>8</title>
<path fill="none" stroke="#a7d856" stroke-width="2" d="M167.5,-639C167.5,-639 117.5,-639 117.5,-639 111.5,-639 105.5,-633 105.5,-627 105.5,-627 105.5,-615 105.5,-615 105.5,-609 111.5,-603 117.5,-603 117.5,-603 167.5,-603 167.5,-603 173.5,-603 179.5,-609 179.5,-615 179.5,-615 179.5,-627 179.5,-627 179.5,-633 173.5,-639 167.5,-639"/>
<text text-anchor="middle" x="142.5" y="-618.5" font-family="sans" font-size="10.00">make_fasta</text>
</g>
<!-- 8&#45;&gt;7 -->
<g id="edge10" class="edge">
<title>8&#45;&gt;7</title>
<path fill="none" stroke="grey" stroke-width="2" d="M142.5,-602.7C142.5,-594.98 142.5,-585.71 142.5,-577.11"/>
<polygon fill="grey" stroke="grey" stroke-width="2" points="146,-577.1 142.5,-567.1 139,-577.1 146,-577.1"/>
</g>
<!-- 9 -->
<g id="node10" class="node">
<title>9</title>
<path fill="none" stroke="#61d856" stroke-width="2" d="M208,-711C208,-711 77,-711 77,-711 71,-711 65,-705 65,-699 65,-699 65,-687 65,-687 65,-681 71,-675 77,-675 77,-675 208,-675 208,-675 214,-675 220,-681 220,-687 220,-687 220,-699 220,-699 220,-705 214,-711 208,-711"/>
<text text-anchor="middle" x="142.5" y="-690.5" font-family="sans" font-size="10.00">merge_hmmsearch_psiblast</text>
</g>
<!-- 9&#45;&gt;8 -->
<g id="edge11" class="edge">
<title>9&#45;&gt;8</title>
<path fill="none" stroke="grey" stroke-width="2" d="M142.5,-674.7C142.5,-666.98 142.5,-657.71 142.5,-649.11"/>
<polygon fill="grey" stroke="grey" stroke-width="2" points="146,-649.1 142.5,-639.1 139,-649.1 146,-649.1"/>
</g>
<!-- 10 -->
<g id="node11" class="node">
<title>10</title>
<path fill="none" stroke="#569ad8" stroke-width="2" d="M126,-783C126,-783 49,-783 49,-783 43,-783 37,-777 37,-771 37,-771 37,-759 37,-759 37,-753 43,-747 49,-747 49,-747 126,-747 126,-747 132,-747 138,-753 138,-759 138,-759 138,-771 138,-771 138,-777 132,-783 126,-783"/>
<text text-anchor="middle" x="87.5" y="-762.5" font-family="sans" font-size="10.00">read_hmmsearch</text>
</g>
<!-- 10&#45;&gt;9 -->
<g id="edge12" class="edge">
<title>10&#45;&gt;9</title>
<path fill="none" stroke="grey" stroke-width="2" d="M101.1,-746.7C107.62,-738.39 115.57,-728.28 122.75,-719.14"/>
<polygon fill="grey" stroke="grey" stroke-width="2" points="125.63,-721.13 129.06,-711.1 120.13,-716.81 125.63,-721.13"/>
</g>
<!-- 11 -->
<g id="node12" class="node">
<title>11</title>
<path fill="none" stroke="#56d8a2" stroke-width="2" d="M112.5,-855C112.5,-855 62.5,-855 62.5,-855 56.5,-855 50.5,-849 50.5,-843 50.5,-843 50.5,-831 50.5,-831 50.5,-825 56.5,-819 62.5,-819 62.5,-819 112.5,-819 112.5,-819 118.5,-819 124.5,-825 124.5,-831 124.5,-831 124.5,-843 124.5,-843 124.5,-849 118.5,-855 112.5,-855"/>
<text text-anchor="middle" x="87.5" y="-834.5" font-family="sans" font-size="10.00">hmmsearch</text>
</g>
<!-- 11&#45;&gt;10 -->
<g id="edge14" class="edge">
<title>11&#45;&gt;10</title>
<path fill="none" stroke="grey" stroke-width="2" d="M87.5,-818.7C87.5,-810.98 87.5,-801.71 87.5,-793.11"/>
<polygon fill="grey" stroke="grey" stroke-width="2" points="91,-793.1 87.5,-783.1 84,-793.1 91,-793.1"/>
</g>
<!-- 12 -->
<g id="node13" class="node">
<title>12</title>
<path fill="none" stroke="#d88556" stroke-width="2" d="M144,-927C144,-927 31,-927 31,-927 25,-927 19,-921 19,-915 19,-915 19,-903 19,-903 19,-897 25,-891 31,-891 31,-891 144,-891 144,-891 150,-891 156,-897 156,-903 156,-903 156,-915 156,-915 156,-921 150,-927 144,-927"/>
<text text-anchor="middle" x="87.5" y="-906.5" font-family="sans" font-size="10.00">fetch_proteins_database</text>
</g>
<!-- 12&#45;&gt;11 -->
<g id="edge15" class="edge">
<title>12&#45;&gt;11</title>
<path fill="none" stroke="grey" stroke-width="2" d="M87.5,-890.7C87.5,-882.98 87.5,-873.71 87.5,-865.11"/>
<polygon fill="grey" stroke="grey" stroke-width="2" points="91,-865.1 87.5,-855.1 84,-865.1 91,-865.1"/>
</g>
<!-- 14 -->
<g id="node15" class="node">
<title>14</title>
<path fill="none" stroke="#d6d856" stroke-width="2" d="M213,-855C213,-855 182,-855 182,-855 176,-855 170,-849 170,-843 170,-843 170,-831 170,-831 170,-825 176,-819 182,-819 182,-819 213,-819 213,-819 219,-819 225,-825 225,-831 225,-831 225,-843 225,-843 225,-849 219,-855 213,-855"/>
<text text-anchor="middle" x="197.5" y="-834.5" font-family="sans" font-size="10.00">psiblast</text>
</g>
<!-- 12&#45;&gt;14 -->
<g id="edge18" class="edge">
<title>12&#45;&gt;14</title>
<path fill="none" stroke="grey" stroke-width="2" d="M114.41,-890.88C128.66,-881.81 146.35,-870.55 161.74,-860.76"/>
<polygon fill="grey" stroke="grey" stroke-width="2" points="163.93,-863.51 170.49,-855.19 160.17,-857.61 163.93,-863.51"/>
</g>
<!-- 13 -->
<g id="node14" class="node">
<title>13</title>
<path fill="none" stroke="#566bd8" stroke-width="2" d="M226.5,-783C226.5,-783 168.5,-783 168.5,-783 162.5,-783 156.5,-777 156.5,-771 156.5,-771 156.5,-759 156.5,-759 156.5,-753 162.5,-747 168.5,-747 168.5,-747 226.5,-747 226.5,-747 232.5,-747 238.5,-753 238.5,-759 238.5,-759 238.5,-771 238.5,-771 238.5,-777 232.5,-783 226.5,-783"/>
<text text-anchor="middle" x="197.5" y="-762.5" font-family="sans" font-size="10.00">read_psiblast</text>
</g>
<!-- 13&#45;&gt;9 -->
<g id="edge13" class="edge">
<title>13&#45;&gt;9</title>
<path fill="none" stroke="grey" stroke-width="2" d="M183.9,-746.7C177.38,-738.39 169.43,-728.28 162.25,-719.14"/>
<polygon fill="grey" stroke="grey" stroke-width="2" points="164.87,-716.81 155.94,-711.1 159.37,-721.13 164.87,-716.81"/>
</g>
<!-- 14&#45;&gt;13 -->
<g id="edge16" class="edge">
<title>14&#45;&gt;13</title>
<path fill="none" stroke="grey" stroke-width="2" d="M197.5,-818.7C197.5,-810.98 197.5,-801.71 197.5,-793.11"/>
<polygon fill="grey" stroke="grey" stroke-width="2" points="201,-793.1 197.5,-783.1 194,-793.1 201,-793.1"/>
</g>
<!-- 15 -->
<g id="node16" class="node">
<title>15</title>
<path fill="none" stroke="#5682d8" stroke-width="2" d="M278.5,-927C278.5,-927 186.5,-927 186.5,-927 180.5,-927 174.5,-921 174.5,-915 174.5,-915 174.5,-903 174.5,-903 174.5,-897 180.5,-891 186.5,-891 186.5,-891 278.5,-891 278.5,-891 284.5,-891 290.5,-897 290.5,-903 290.5,-903 290.5,-915 290.5,-915 290.5,-921 284.5,-927 278.5,-927"/>
<text text-anchor="middle" x="232.5" y="-906.5" font-family="sans" font-size="10.00">make_seed_psiblast</text>
</g>
<!-- 15&#45;&gt;14 -->
<g id="edge17" class="edge">
<title>15&#45;&gt;14</title>
<path fill="none" stroke="grey" stroke-width="2" d="M223.85,-890.7C219.86,-882.73 215.05,-873.1 210.63,-864.26"/>
<polygon fill="grey" stroke="grey" stroke-width="2" points="213.65,-862.48 206.05,-855.1 207.39,-865.61 213.65,-862.48"/>
</g>
<!-- 16 -->
<g id="node17" class="node">
<title>16</title>
<path fill="none" stroke="#8fd856" stroke-width="2" d="M284.5,-999C284.5,-999 180.5,-999 180.5,-999 174.5,-999 168.5,-993 168.5,-987 168.5,-987 168.5,-975 168.5,-975 168.5,-969 174.5,-963 180.5,-963 180.5,-963 284.5,-963 284.5,-963 290.5,-963 296.5,-969 296.5,-975 296.5,-975 296.5,-987 296.5,-987 296.5,-993 290.5,-999 284.5,-999"/>
<text text-anchor="middle" x="232.5" y="-978.5" font-family="sans" font-size="10.00">fetch_fasta_from_seed</text>
</g>
<!-- 16&#45;&gt;15 -->
<g id="edge19" class="edge">
<title>16&#45;&gt;15</title>
<path fill="none" stroke="grey" stroke-width="2" d="M232.5,-962.7C232.5,-954.98 232.5,-945.71 232.5,-937.11"/>
<polygon fill="grey" stroke="grey" stroke-width="2" points="236,-937.1 232.5,-927.1 229,-937.1 236,-937.1"/>
</g>
<!-- 17 -->
<g id="node18" class="node">
<title>17</title>
<path fill="none" stroke="#56b1d8" stroke-width="2" d="M166,-252C166,-252 119,-252 119,-252 113,-252 107,-246 107,-240 107,-240 107,-228 107,-228 107,-222 113,-216 119,-216 119,-216 166,-216 166,-216 172,-216 178,-222 178,-228 178,-228 178,-240 178,-240 178,-246 172,-252 166,-252"/>
<text text-anchor="middle" x="142.5" y="-231.5" font-family="sans" font-size="10.00">find_family</text>
</g>
<!-- 17&#45;&gt;2 -->
<g id="edge4" class="edge">
<title>17&#45;&gt;2</title>
<path fill="none" stroke="grey" stroke-width="2" d="M142.5,-215.7C142.5,-207.98 142.5,-198.71 142.5,-190.11"/>
<polygon fill="grey" stroke="grey" stroke-width="2" points="146,-190.1 142.5,-180.1 139,-190.1 146,-190.1"/>
</g>
<!-- 18&#45;&gt;17 -->
<g id="edge20" class="edge">
<title>18&#45;&gt;17</title>
<path fill="none" stroke="grey" stroke-width="2" d="M142.5,-287.88C142.5,-279.47 142.5,-270.4 142.5,-262.19"/>
<polygon fill="grey" stroke="grey" stroke-width="2" points="146,-262.03 142.5,-252.03 139,-262.03 146,-262.03"/>
</g>
<!-- 19 -->
<g id="node20" class="node">
<title>19</title>
<path fill="none" stroke="#56b1d8" stroke-width="2" d="M261,-252C261,-252 214,-252 214,-252 208,-252 202,-246 202,-240 202,-240 202,-228 202,-228 202,-222 208,-216 214,-216 214,-216 261,-216 261,-216 267,-216 273,-222 273,-228 273,-228 273,-240 273,-240 273,-246 267,-252 261,-252"/>
<text text-anchor="middle" x="237.5" y="-231.5" font-family="sans" font-size="10.00">find_family</text>
</g>
<!-- 19&#45;&gt;2 -->
<g id="edge5" class="edge">
<title>19&#45;&gt;2</title>
<path fill="none" stroke="grey" stroke-width="2" d="M214.02,-215.7C201.94,-206.8 187.05,-195.82 173.98,-186.2"/>
<polygon fill="grey" stroke="grey" stroke-width="2" points="175.84,-183.22 165.71,-180.1 171.69,-188.85 175.84,-183.22"/>
</g>
<!-- 20&#45;&gt;19 -->
<g id="edge22" class="edge">
<title>20&#45;&gt;19</title>
<path fill="none" stroke="grey" stroke-width="2" d="M241.3,-287.88C240.7,-279.47 240.04,-270.4 239.45,-262.19"/>
<polygon fill="grey" stroke="grey" stroke-width="2" points="242.93,-261.75 238.72,-252.03 235.95,-262.25 242.93,-261.75"/>
</g>
</g>
</svg>
