<?xml version="1.0" encoding="utf-8"?>
<!-- Generator: Adobe Illustrator 24.2.0, SVG Export Plug-In . SVG Version: 6.00 Build 0)  -->
<svg version="1.1" id="Layer_1" xmlns="http://www.w3.org/2000/svg" xmlns:xlink="http://www.w3.org/1999/xlink" x="0px" y="0px"
	 viewBox="0 0 290 281" style="enable-background:new 0 0 290 281;" xml:space="preserve">
<style type="text/css">
	.st0{fill:none;stroke:#59D856;stroke-width:2;}
	.st1{font-family:'ArialMT';}
	.st2{font-size:10px;}
	.st3{fill:none;stroke:#56A9D8;stroke-width:2;}
	.st4{fill:none;stroke:#808080;stroke-width:2;}
	.st5{fill:#808080;stroke:#808080;stroke-width:2;}
	.st6{fill:none;stroke:#AFD856;stroke-width:2;}
	.st7{fill:none;stroke:#80D856;stroke-width:2;}
	.st8{fill:none;stroke:#D88556;stroke-width:2;}
</style>
<g id="node3">
	<path class="st0" d="M108,244H78c-6,0-12,6-12,12v12c0,6,6,12,12,12h30c6,0,12-6,12-12v-12C120,250,114,244,108,244"/>
	<text transform="matrix(1 0 0 1 84.6675 264.5)" class="st1 st2">silix</text>
</g>
<g id="node4">
	<path class="st3" d="M149,73h-30c-6,0-12,6-12,12v12c0,6,6,12,12,12h30c6,0,12-6,12-12V85C161,79,155,73,149,73"/>
	<text transform="matrix(1 0 0 1 123.4385 93.5)" class="st1 st2">blast</text>
</g>
<g id="edge4">
	<path class="st4" d="M106.6,99.9C85.3,107.6,57.3,121.7,44,145c-13.9,24.3-10.2,36.9,0,63c4.2,10.7,11.7,20.6,19.6,28.8"/>
	<polygon class="st5" points="66.1,234.4 70.8,243.9 61.2,239.4 	"/>
</g>
<g id="node7">
	<path class="st6" d="M131,145H65c-6,0-12,6-12,12v39c0,6,6,12,12,12h66c6,0,12-6,12-12v-39C143,151,137,145,131,145"/>
	<text transform="matrix(1 0 0 1 61.0371 157)" class="st1 st2">prepare_for_silix</text>
	<text transform="matrix(1 0 0 1 67.7021 168)" class="st1 st2">coverage: 0.3</text>
	<text transform="matrix(1 0 0 1 73.2612 179)" class="st1 st2">eval: 1e-03</text>
	<text transform="matrix(1 0 0 1 81.5986 190)" class="st1 st2">pid: 0.2</text>
	<text transform="matrix(1 0 0 1 66.0322 201)" class="st1 st2">seed: Gene_A</text>
</g>
<g id="edge8">
	<path class="st4" d="M126.5,109.3c-3.3,7.6-7.3,16.8-11.2,26"/>
	<polygon class="st5" points="118.4,136.9 111.3,144.7 112,134.1 	"/>
</g>
<g id="node9">
	<path class="st0" d="M190,244h-30c-6,0-12,6-12,12v12c0,6,6,12,12,12h30c6,0,12-6,12-12v-12C202,250,196,244,190,244"/>
	<text transform="matrix(1 0 0 1 166.6675 264.5)" class="st1 st2">silix</text>
</g>
<g id="edge10">
	<path class="st4" d="M140.4,109c3.7,10.3,8.3,23.8,11.6,36c8.1,30.1,14.6,65.3,18.7,88.9"/>
	<polygon class="st5" points="174.1,233.5 172.3,243.9 167.2,234.6 	"/>
</g>
<g id="node10">
	<path class="st6" d="M277,145h-66c-6,0-12,6-12,12v39c0,6,6,12,12,12h66c6,0,12-6,12-12v-39C289,151,283,145,277,145"/>
	<text transform="matrix(1 0 0 1 207.0371 157)" class="st1 st2">prepare_for_silix</text>
	<text transform="matrix(1 0 0 1 213.7021 168)" class="st1 st2">coverage: 0.3</text>
	<text transform="matrix(1 0 0 1 219.2612 179)" class="st1 st2">eval: 1e-02</text>
	<text transform="matrix(1 0 0 1 227.5986 190)" class="st1 st2">pid: 0.6</text>
	<text transform="matrix(1 0 0 1 212.0322 201)" class="st1 st2">seed: Gene_B</text>
</g>
<g id="edge12">
	<path class="st4" d="M156.5,109.1c11.2,8.5,25.3,19.2,38.8,29.5"/>
	<polygon class="st5" points="197.9,136.1 203.7,144.9 193.6,141.7 	"/>
</g>
<g id="node5">
	<path class="st7" d="M115,1H13C7,1,1,7,1,13v12c0,6,6,12,12,12h102c6,0,12-6,12-12V13C127,7,121,1,115,1"/>
	<text transform="matrix(1 0 0 1 9.2368 21.5)" class="st1 st2">fetch_proteins_database</text>
</g>
<g id="edge6">
	<path class="st4" d="M81.3,37.3c8.6,8.6,19,19,28.4,28.4"/>
	<polygon class="st5" points="112.3,63.4 116.9,72.9 107.3,68.3 	"/>
</g>
<g id="node6">
	<path class="st8" d="M251,1h-94c-6,0-12,6-12,12v12c0,6,6,12,12,12h94c6,0,12-6,12-12V13C263,7,257,1,251,1"/>
	<text transform="matrix(1 0 0 1 153.1357 21.5)" class="st1 st2">fetch_fasta_from_seed</text>
</g>
<g id="edge7">
	<path class="st4" d="M186.7,37.3c-8.6,8.6-19,19-28.4,28.4"/>
	<polygon class="st5" points="160.6,68.3 151.1,72.9 155.7,63.4 	"/>
</g>
<g id="edge5">
	<path class="st4" d="M96.2,208.1c-0.5,8.4-1,17.5-1.5,25.7"/>
	<polygon class="st5" points="98.1,234.2 94,244 91.1,233.8 	"/>
</g>
<g id="edge11">
	<path class="st4" d="M218.7,208.1c-7.6,9.2-15.8,19.1-23,27.9"/>
	<polygon class="st5" points="198.1,238.5 189.1,244 192.7,234 	"/>
</g>
</svg>
